<svg xmlns="http://www.w3.org/2000/svg" version="1.1" xmlns:xlink="http://www.w3.org/1999/xlink" xmlns:svgjs="http://svgjs.dev/svgjs" width="1500" height="1500" viewBox="0 0 1500 1500"><rect width="1500" height="1500" fill="#ece9e9"></rect><g transform="matrix(0.6666666666666666,0,0,0.6666666666666666,249.39393939393938,438.5856950067477)"><svg viewBox="0 0 396 247" data-background-color="#ece9e9" preserveAspectRatio="xMidYMid meet" height="935" width="1500" xmlns="http://www.w3.org/2000/svg" xmlns:xlink="http://www.w3.org/1999/xlink"><g id="tight-bounds" transform="matrix(1,0,0,1,0.2400000000000091,-0.09999999999999432)"><svg viewBox="0 0 395.52 247.2" height="247.2" width="395.52"><g><svg></svg></g><g><svg viewBox="0 0 395.52 247.2" height="247.2" width="395.52"><g transform="matrix(1,0,0,1,118.13444972628285,47.215199999999996)"><svg viewBox="0 0 159.25110054743428 152.7696" height="152.7696" width="159.25110054743428"><g><svg viewBox="0 0 244.43135999999998 234.4830331865334" height="152.7696" width="159.25110054743428"><g transform="matrix(1,0,0,1,0,197.70790106634007)"><svg viewBox="0 0 244.43135999999998 36.77513212019332" height="36.77513212019332" width="244.43135999999998"><g id="textblocktransform"><svg viewBox="0 0 244.43135999999998 36.77513212019332" height="36.77513212019332" width="244.43135999999998" id="textblock"><g><svg viewBox="0 0 244.43135999999998 36.77513212019332" height="36.77513212019332" width="244.43135999999998"><g transform="matrix(1,0,0,1,0,0)"><svg width="244.43135999999998" viewBox="1.1 -35.05 237.93 35.8" height="36.77513212019332" data-palette-color="#e67e22"><path d="M14.7 0L1.1 0 1.1-0.5 2.1-0.85Q3.1-1.15 3.43-1.75 3.75-2.35 3.75-3.35L3.75-3.35 3.75-29.55Q3.75-30.55 3.4-31.15 3.05-31.75 2.05-32.1L2.05-32.1 1.1-32.5 1.1-33 13.25-33Q20.7-33 24.03-30.28 27.35-27.55 27.35-23.1L27.35-23.1Q27.35-20.25 25.98-17.88 24.6-15.5 21.45-14.1 18.3-12.7 12.95-12.7L12.95-12.7 11.25-12.7 11.25-3.5Q11.25-1.55 13.2-0.95L13.2-0.95 14.7-0.5 14.7 0ZM11.25-32L11.25-13.7 13.15-13.7Q15.6-13.7 17.15-14.5 18.7-15.3 19.45-17.3 20.2-19.3 20.2-22.85L20.2-22.85Q20.2-26.45 19.38-28.45 18.55-30.45 16.95-31.23 15.35-32 12.95-32L12.95-32 11.25-32ZM41.8-24.8L41.8-24.8Q45.05-24.8 47.35-23.48 49.65-22.15 50.87-19.88 52.1-17.6 52.1-14.7L52.1-14.7Q52.1-14.15 52.05-13.58 52-13 51.85-12.55L51.85-12.55 36.95-12.55Q37-7.15 38.87-4.78 40.75-2.4 44.45-2.4L44.45-2.4Q46.95-2.4 48.5-3.2 50.05-4 51.4-5.55L51.4-5.55 51.9-5.1Q50.35-2.35 47.77-0.8 45.2 0.75 41.6 0.75L41.6 0.75Q38.05 0.75 35.3-0.78 32.55-2.3 31-5.15 29.45-8 29.45-11.95L29.45-11.95Q29.45-16.05 31.25-18.93 33.05-21.8 35.87-23.3 38.7-24.8 41.8-24.8ZM41.65-23.8L41.65-23.8Q40.2-23.8 39.17-22.93 38.15-22.05 37.57-19.83 37-17.6 36.95-13.55L36.95-13.55 45.5-13.55Q46-19 45.1-21.4 44.2-23.8 41.65-23.8ZM67.55 0L54.59 0 54.59-0.5 55.34-0.7Q56.34-1 56.72-1.6 57.09-2.2 57.09-3.15L57.09-3.15 57.09-18.8Q57.09-19.9 56.72-20.43 56.34-20.95 55.34-21.15L55.34-21.15 54.59-21.35 54.59-21.85 63.2-24.75 63.7-24.25 64.14-19.95 64.14-19.55Q64.84-20.95 65.97-22.13 67.09-23.3 68.47-24.05 69.84-24.8 71.19-24.8L71.19-24.8Q73.09-24.8 74.09-23.75 75.09-22.7 75.09-21.1L75.09-21.1Q75.09-19.4 74.12-18.48 73.14-17.55 71.8-17.55L71.8-17.55Q69.69-17.55 68.09-19.65L68.09-19.65 68-19.75Q67.5-20.45 66.84-20.53 66.19-20.6 65.64-19.9L65.64-19.9Q65.14-19.45 64.82-18.82 64.5-18.2 64.19-17.4L64.19-17.4 64.19-3.45Q64.19-1.45 65.94-0.95L65.94-0.95 67.55-0.5 67.55 0ZM86.14 0.75L86.14 0.75Q82.94 0.75 81.17-0.85 79.39-2.45 79.39-5.95L79.39-5.95 79.39-23.05 75.94-23.05 75.94-23.55 77.14-23.75Q78.69-24.1 79.82-24.75 80.94-25.4 82.04-26.5L82.04-26.5 86.14-31.05 86.64-31.05 86.49-24.05 92.09-24.05 92.09-23.05 86.44-23.05 86.44-5.05Q86.44-3.3 87.22-2.4 87.99-1.5 89.19-1.5L89.19-1.5Q90.24-1.5 91.04-2.02 91.84-2.55 92.64-3.45L92.64-3.45 93.14-2.95Q92.14-1.25 90.39-0.25 88.64 0.75 86.14 0.75ZM108.39 0L94.79 0 94.79-0.5 95.69-0.8Q96.69-1.15 97.04-1.75 97.39-2.35 97.39-3.35L97.39-3.35Q97.44-6.35 97.44-9.4 97.44-12.45 97.44-15.5L97.44-15.5 97.44-17.5Q97.44-20.5 97.44-23.53 97.44-26.55 97.39-29.55L97.39-29.55Q97.39-30.55 97.11-31.15 96.84-31.75 95.89-32.1L95.89-32.1 94.79-32.5 94.79-33 118.99-33 119.34-24.7 118.84-24.7 115.99-29.95Q115.49-30.9 114.84-31.45 114.19-32 113.04-32L113.04-32 104.99-32Q104.94-28.45 104.94-24.75 104.94-21.05 104.94-17.4L104.94-17.4 110.14-17.4Q111.29-17.4 111.84-17.9 112.39-18.4 112.89-19.35L112.89-19.35 113.94-21.25 114.44-21.25 114.44-12.5 113.94-12.5 112.84-14.4Q112.34-15.3 111.81-15.85 111.29-16.4 110.14-16.4L110.14-16.4 104.94-16.4Q104.94-12.9 104.94-9.73 104.94-6.55 104.99-3.5L104.99-3.5Q104.99-1.55 106.89-0.95L106.89-0.95 108.39-0.5 108.39 0ZM127.59-27.4L127.59-27.4Q125.89-27.4 124.71-28.48 123.54-29.55 123.54-31.2L123.54-31.2Q123.54-32.9 124.71-33.95 125.89-35 127.59-35L127.59-35Q129.29-35 130.44-33.95 131.59-32.9 131.59-31.2L131.59-31.2Q131.59-29.55 130.44-28.48 129.29-27.4 127.59-27.4ZM133.39 0L121.69 0 121.69-0.5 122.39-0.7Q123.39-1 123.76-1.6 124.14-2.2 124.14-3.2L124.14-3.2 124.14-18.85Q124.14-19.9 123.76-20.43 123.39-20.95 122.39-21.15L122.39-21.15 121.69-21.3 121.69-21.8 130.84-24.75 131.34-24.25 131.19-17.15 131.19-3.15Q131.19-2.15 131.56-1.55 131.94-0.95 132.89-0.65L132.89-0.65 133.39-0.5 133.39 0ZM147.34 0L135.59 0 135.59-0.5 136.28-0.7Q138.03-1.2 138.03-3.15L138.03-3.15 138.03-18.8Q138.03-19.9 137.69-20.43 137.34-20.95 136.34-21.15L136.34-21.15 135.59-21.35 135.59-21.85 144.14-24.75 144.64-24.25 145.03-21.25Q146.78-22.8 148.99-23.8 151.19-24.8 153.34-24.8L153.34-24.8Q156.64-24.8 158.41-23 160.19-21.2 160.19-17.5L160.19-17.5 160.19-3.1Q160.19-1.15 162.09-0.65L162.09-0.65 162.54-0.5 162.54 0 150.74 0 150.74-0.5 151.39-0.7Q153.14-1.25 153.14-3.15L153.14-3.15 153.14-19.1Q153.14-22.3 149.94-22.3L149.94-22.3Q147.74-22.3 145.14-20.1L145.14-20.1 145.14-3.1Q145.14-1.15 146.89-0.65L146.89-0.65 147.34-0.5 147.34 0ZM175.08 0.75L175.08 0.75Q172.13 0.75 169.78-0.58 167.43-1.9 166.06-4.67 164.68-7.45 164.68-11.8L164.68-11.8Q164.68-16.2 166.23-19.07 167.78-21.95 170.33-23.38 172.88-24.8 175.88-24.8L175.88-24.8Q177.63-24.8 179.23-24.45 180.83-24.1 182.08-23.4L182.08-23.4 182.08-29.9Q182.08-30.95 181.76-31.45 181.43-31.95 180.38-32.15L180.38-32.15 179.43-32.35 179.43-32.85 188.53-35.05 189.08-34.6 188.88-27.6 188.88-3.15Q188.88-2.15 189.23-1.53 189.58-0.9 190.53-0.65L190.53-0.65 190.98-0.5 190.98 0 182.43 0.55 181.98-1.25Q180.63-0.35 178.91 0.2 177.18 0.75 175.08 0.75ZM177.98-1.1L177.98-1.1Q180.08-1.1 181.83-2.35L181.83-2.35 181.83-22.2Q179.98-23.4 178.03-23.4L178.03-23.4Q175.63-23.4 173.93-20.63 172.23-17.85 172.23-11.9L172.23-11.9Q172.23-5.95 173.83-3.53 175.43-1.1 177.98-1.1ZM205.73-24.8L205.73-24.8Q208.98-24.8 211.28-23.48 213.58-22.15 214.81-19.88 216.03-17.6 216.03-14.7L216.03-14.7Q216.03-14.15 215.98-13.58 215.93-13 215.78-12.55L215.78-12.55 200.88-12.55Q200.93-7.15 202.81-4.78 204.68-2.4 208.38-2.4L208.38-2.4Q210.88-2.4 212.43-3.2 213.98-4 215.33-5.55L215.33-5.55 215.83-5.1Q214.28-2.35 211.71-0.8 209.13 0.75 205.53 0.75L205.53 0.75Q201.98 0.75 199.23-0.78 196.48-2.3 194.93-5.15 193.38-8 193.38-11.95L193.38-11.95Q193.38-16.05 195.18-18.93 196.98-21.8 199.81-23.3 202.63-24.8 205.73-24.8ZM205.58-23.8L205.58-23.8Q204.13-23.8 203.11-22.93 202.08-22.05 201.5-19.83 200.93-17.6 200.88-13.55L200.88-13.55 209.43-13.55Q209.93-19 209.03-21.4 208.13-23.8 205.58-23.8ZM231.48 0L218.53 0 218.53-0.5 219.28-0.7Q220.28-1 220.65-1.6 221.03-2.2 221.03-3.15L221.03-3.15 221.03-18.8Q221.03-19.9 220.65-20.43 220.28-20.95 219.28-21.15L219.28-21.15 218.53-21.35 218.53-21.85 227.13-24.75 227.63-24.25 228.08-19.95 228.08-19.55Q228.78-20.95 229.9-22.13 231.03-23.3 232.4-24.05 233.78-24.8 235.13-24.8L235.13-24.8Q237.03-24.8 238.03-23.75 239.03-22.7 239.03-21.1L239.03-21.1Q239.03-19.4 238.05-18.48 237.08-17.55 235.73-17.55L235.73-17.55Q233.63-17.55 232.03-19.65L232.03-19.65 231.93-19.75Q231.43-20.45 230.78-20.53 230.13-20.6 229.58-19.9L229.58-19.9Q229.08-19.45 228.75-18.82 228.43-18.2 228.13-17.4L228.13-17.4 228.13-3.45Q228.13-1.45 229.88-0.95L229.88-0.95 231.48-0.5 231.48 0Z" opacity="1" transform="matrix(1,0,0,1,0,0)" fill="#e67e22" class="wordmark-text-0" data-fill-palette-color="primary" id="text-0"></path></svg></g></svg></g></svg></g></svg></g><g transform="matrix(1,0,0,1,32.04345555723671,0)"><svg viewBox="0 0 180.34444888552656 180.34444888552656" height="180.34444888552656" width="180.34444888552656"><g><svg></svg></g><g id="icon-0"><svg viewBox="0 0 180.34444888552656 180.34444888552656" height="180.34444888552656" width="180.34444888552656"><g><path d="M0 90.172c0-49.801 40.371-90.172 90.172-90.172 49.801 0 90.172 40.371 90.172 90.172 0 49.801-40.371 90.172-90.172 90.172-49.801 0-90.172-40.371-90.172-90.172zM90.172 177.028c47.969 0 86.856-38.887 86.856-86.856 0-47.969-38.887-86.856-86.856-86.856-47.969 0-86.856 38.887-86.856 86.856 0 47.969 38.887 86.856 86.856 86.856z" data-fill-palette-color="accent" fill="#4daafa" stroke="transparent"></path></g><g transform="matrix(1,0,0,1,35.563728567804965,40.516173058704936)"><svg viewBox="0 0 109.21699174991663 99.31210276811669" height="99.31210276811669" width="109.21699174991663"><g><svg xmlns="http://www.w3.org/2000/svg" xmlns:xlink="http://www.w3.org/1999/xlink" version="1.1" x="0" y="0" viewBox="7.5 12.346 100 90.931" enable-background="new 0 0 115 115" xml:space="preserve" height="99.31210276811669" width="109.21699174991663" class="icon-cg-0" data-fill-palette-color="accent" id="cg-0"><path fill="#4daafa" d="M81.858 30.772h-0.533c-0.296 0-0.533-0.24-0.533-0.535 0-0.294 0.237-0.531 0.533-0.531h0.533c0.293 0 0.533 0.236 0.533 0.531C82.392 30.533 82.151 30.772 81.858 30.772L81.858 30.772z" data-fill-palette-color="accent"></path><path fill="#4daafa" d="M78.659 30.772h-0.535c-0.294 0-0.533-0.24-0.533-0.535 0-0.294 0.239-0.531 0.533-0.531h0.535c0.292 0 0.531 0.236 0.531 0.531C79.19 30.533 78.951 30.772 78.659 30.772L78.659 30.772z" data-fill-palette-color="accent"></path><path fill="#4daafa" d="M75.458 30.772h-0.532c-0.298 0-0.534-0.24-0.534-0.535 0-0.294 0.236-0.531 0.534-0.531h0.532c0.294 0 0.534 0.236 0.534 0.531C75.992 30.533 75.752 30.772 75.458 30.772L75.458 30.772z" data-fill-palette-color="accent"></path><path fill="#4daafa" d="M72.258 30.772h-0.533c-0.296 0-0.533-0.24-0.533-0.535 0-0.294 0.237-0.531 0.533-0.531h0.533c0.295 0 0.533 0.236 0.533 0.531C72.791 30.533 72.553 30.772 72.258 30.772L72.258 30.772z" data-fill-palette-color="accent"></path><path fill="#4daafa" d="M69.059 30.772h-0.535c-0.294 0-0.533-0.24-0.533-0.535 0-0.294 0.239-0.531 0.533-0.531h0.535c0.293 0 0.533 0.236 0.533 0.531C69.592 30.533 69.352 30.772 69.059 30.772L69.059 30.772z" data-fill-palette-color="accent"></path><path fill="#4daafa" d="M65.857 30.772h-0.531c-0.297 0-0.535-0.24-0.535-0.535 0-0.294 0.238-0.531 0.535-0.531h0.531c0.296 0 0.535 0.236 0.535 0.531C66.393 30.533 66.153 30.772 65.857 30.772L65.857 30.772z" data-fill-palette-color="accent"></path><path fill="#4daafa" d="M62.658 30.772h-0.534c-0.294 0-0.533-0.24-0.533-0.535 0-0.294 0.239-0.531 0.533-0.531h0.534c0.294 0 0.533 0.236 0.533 0.531C63.191 30.533 62.952 30.772 62.658 30.772L62.658 30.772z" data-fill-palette-color="accent"></path><path fill="#4daafa" d="M59.458 30.772h-0.535c-0.292 0-0.531-0.24-0.531-0.535 0-0.294 0.239-0.531 0.531-0.531h0.535c0.295 0 0.533 0.236 0.533 0.531C59.991 30.533 59.753 30.772 59.458 30.772L59.458 30.772z" data-fill-palette-color="accent"></path><path fill="#4daafa" d="M56.259 30.772h-0.535c-0.294 0-0.533-0.24-0.533-0.535 0-0.294 0.239-0.531 0.533-0.531h0.535c0.292 0 0.531 0.236 0.531 0.531C56.79 30.533 56.551 30.772 56.259 30.772L56.259 30.772z" data-fill-palette-color="accent"></path><path fill="#4daafa" d="M53.057 30.772h-0.533c-0.294 0-0.533-0.24-0.533-0.535 0-0.294 0.239-0.531 0.533-0.531h0.533c0.296 0 0.534 0.236 0.534 0.531C53.591 30.533 53.354 30.772 53.057 30.772L53.057 30.772z" data-fill-palette-color="accent"></path><path fill="#4daafa" d="M49.858 30.772h-0.533c-0.296 0-0.534-0.24-0.534-0.535 0-0.294 0.237-0.531 0.534-0.531h0.533c0.294 0 0.533 0.236 0.533 0.531C50.391 30.533 50.152 30.772 49.858 30.772L49.858 30.772z" data-fill-palette-color="accent"></path><path fill="#4daafa" d="M46.658 30.772h-0.533c-0.296 0-0.533-0.24-0.533-0.535 0-0.294 0.237-0.531 0.533-0.531h0.533c0.294 0 0.533 0.236 0.533 0.531C47.191 30.533 46.953 30.772 46.658 30.772L46.658 30.772z" data-fill-palette-color="accent"></path><path fill="#4daafa" d="M43.457 30.772h-0.533c-0.294 0-0.533-0.24-0.533-0.535 0-0.294 0.239-0.531 0.533-0.531h0.533c0.294 0 0.533 0.236 0.533 0.531C43.99 30.533 43.751 30.772 43.457 30.772L43.457 30.772z" data-fill-palette-color="accent"></path><path fill="#4daafa" d="M40.257 30.772h-0.533c-0.294 0-0.533-0.24-0.533-0.535 0-0.294 0.239-0.531 0.533-0.531h0.533c0.294 0 0.533 0.236 0.533 0.531C40.791 30.533 40.552 30.772 40.257 30.772L40.257 30.772z" data-fill-palette-color="accent"></path><path fill="#4daafa" d="M37.058 30.772h-0.533c-0.294 0-0.533-0.24-0.533-0.535 0-0.294 0.239-0.531 0.533-0.531h0.533c0.294 0 0.534 0.236 0.534 0.531C37.591 30.533 37.352 30.772 37.058 30.772L37.058 30.772z" data-fill-palette-color="accent"></path><path fill="#4daafa" d="M33.858 30.772h-0.535c-0.294 0-0.533-0.24-0.533-0.535 0-0.294 0.239-0.531 0.533-0.531h0.535c0.294 0 0.533 0.236 0.533 0.531C34.392 30.533 34.152 30.772 33.858 30.772L33.858 30.772z" data-fill-palette-color="accent"></path><path fill="#4daafa" d="M28.458 30.772h-0.533c-0.294 0-0.533-0.24-0.533-0.535 0-0.294 0.239-0.531 0.533-0.531h0.533c0.294 0 0.533 0.236 0.533 0.531C28.991 30.533 28.752 30.772 28.458 30.772L28.458 30.772z" data-fill-palette-color="accent"></path><path fill="#4daafa" d="M24.924 30.772h-0.533c-0.294 0-0.533-0.24-0.533-0.535 0-0.294 0.239-0.531 0.533-0.531h0.533c0.294 0 0.533 0.236 0.533 0.531C25.458 30.533 25.219 30.772 24.924 30.772L24.924 30.772z" data-fill-palette-color="accent"></path><path fill="#4daafa" d="M21.39 30.772h-0.533c-0.294 0-0.533-0.24-0.533-0.535 0-0.294 0.239-0.531 0.533-0.531h0.533c0.294 0 0.534 0.236 0.534 0.531C21.924 30.533 21.685 30.772 21.39 30.772L21.39 30.772z" data-fill-palette-color="accent"></path><path fill="#4daafa" d="M17.857 30.772h-0.533c-0.294 0-0.533-0.24-0.533-0.535 0-0.294 0.239-0.531 0.533-0.531h0.533c0.296 0 0.533 0.236 0.533 0.531C18.39 30.533 18.153 30.772 17.857 30.772L17.857 30.772z" data-fill-palette-color="accent"></path><g fill="#4daafa" data-fill-palette-color="accent"><path fill="#4daafa" d="M51.194 52.988h-0.533c-0.296 0-0.533-0.239-0.533-0.533s0.237-0.533 0.533-0.533h0.533c0.294 0 0.533 0.239 0.533 0.533S51.489 52.988 51.194 52.988L51.194 52.988zM47.995 52.988h-0.533c-0.296 0-0.533-0.239-0.533-0.533s0.237-0.533 0.533-0.533h0.533c0.294 0 0.532 0.239 0.532 0.533S48.289 52.988 47.995 52.988L47.995 52.988zM44.793 52.988H44.26c-0.294 0-0.533-0.239-0.533-0.533s0.239-0.533 0.533-0.533h0.533c0.294 0 0.533 0.239 0.533 0.533S45.088 52.988 44.793 52.988L44.793 52.988zM41.594 52.988h-0.533c-0.294 0-0.533-0.239-0.533-0.533s0.239-0.533 0.533-0.533h0.533c0.294 0 0.534 0.239 0.534 0.533S41.888 52.988 41.594 52.988L41.594 52.988zM22.393 52.988H21.86c-0.294 0-0.531-0.239-0.531-0.533s0.237-0.533 0.531-0.533h0.533c0.296 0 0.535 0.239 0.535 0.533S22.689 52.988 22.393 52.988L22.393 52.988zM19.194 52.988H18.66c-0.294 0-0.533-0.239-0.533-0.533s0.239-0.533 0.533-0.533h0.534c0.296 0 0.533 0.239 0.533 0.533S19.49 52.988 19.194 52.988L19.194 52.988z" data-fill-palette-color="accent"></path></g><path fill="#4daafa" d="M100.034 75.203c-0.292 0-0.552-0.239-0.552-0.533 0-0.295 0.22-0.533 0.514-0.533h0.038c0.296 0 0.535 0.238 0.535 0.533C100.569 74.964 100.33 75.203 100.034 75.203L100.034 75.203z" data-fill-palette-color="accent"></path><path fill="#4daafa" d="M97.33 75.203h-0.531c-0.298 0-0.535-0.239-0.535-0.533 0-0.295 0.237-0.533 0.535-0.533h0.531c0.294 0 0.535 0.238 0.535 0.533C97.865 74.964 97.624 75.203 97.33 75.203L97.33 75.203z" data-fill-palette-color="accent"></path><path fill="#4daafa" d="M94.131 75.203h-0.534c-0.294 0-0.533-0.239-0.533-0.533 0-0.295 0.239-0.533 0.533-0.533h0.534c0.294 0 0.533 0.238 0.533 0.533C94.664 74.964 94.425 75.203 94.131 75.203L94.131 75.203z" data-fill-palette-color="accent"></path><path fill="#4daafa" d="M90.931 75.203h-0.533c-0.296 0-0.533-0.239-0.533-0.533 0-0.295 0.237-0.533 0.533-0.533h0.533c0.293 0 0.533 0.238 0.533 0.533C91.464 74.964 91.224 75.203 90.931 75.203L90.931 75.203z" data-fill-palette-color="accent"></path><path fill="#4daafa" d="M87.731 75.203h-0.533c-0.296 0-0.533-0.239-0.533-0.533 0-0.295 0.237-0.533 0.533-0.533h0.533c0.294 0 0.533 0.238 0.533 0.533C88.265 74.964 88.025 75.203 87.731 75.203L87.731 75.203z" data-fill-palette-color="accent"></path><path fill="#4daafa" d="M84.53 75.203h-0.532c-0.297 0-0.534-0.239-0.534-0.533 0-0.295 0.237-0.533 0.534-0.533h0.532c0.294 0 0.535 0.238 0.535 0.533C85.065 74.964 84.824 75.203 84.53 75.203L84.53 75.203z" data-fill-palette-color="accent"></path><path fill="#4daafa" d="M81.332 75.203h-0.535c-0.294 0-0.531-0.239-0.531-0.533 0-0.295 0.237-0.533 0.531-0.533h0.535c0.293 0 0.531 0.238 0.531 0.533C81.863 74.964 81.625 75.203 81.332 75.203L81.332 75.203z" data-fill-palette-color="accent"></path><path fill="#4daafa" d="M78.131 75.203h-0.533c-0.296 0-0.533-0.239-0.533-0.533 0-0.295 0.237-0.533 0.533-0.533h0.533c0.294 0 0.533 0.238 0.533 0.533C78.664 74.964 78.425 75.203 78.131 75.203L78.131 75.203z" data-fill-palette-color="accent"></path><path fill="#4daafa" d="M74.932 75.203h-0.533c-0.297 0-0.535-0.239-0.535-0.533 0-0.295 0.238-0.533 0.535-0.533h0.533c0.294 0 0.533 0.238 0.533 0.533C75.465 74.964 75.226 75.203 74.932 75.203L74.932 75.203z" data-fill-palette-color="accent"></path><path fill="#4daafa" d="M52.531 75.203h-0.533c-0.296 0-0.535-0.239-0.535-0.533 0-0.295 0.239-0.533 0.535-0.533h0.533c0.294 0 0.534 0.238 0.534 0.533C53.064 74.964 52.825 75.203 52.531 75.203L52.531 75.203z" data-fill-palette-color="accent"></path><path fill="#4daafa" d="M49.33 75.203h-0.533c-0.294 0-0.533-0.239-0.533-0.533 0-0.295 0.239-0.533 0.533-0.533h0.533c0.296 0 0.533 0.238 0.533 0.533C49.863 74.964 49.626 75.203 49.33 75.203L49.33 75.203z" data-fill-palette-color="accent"></path><path fill="#4daafa" d="M46.13 75.203h-0.534c-0.294 0-0.533-0.239-0.533-0.533 0-0.295 0.239-0.533 0.533-0.533h0.534c0.294 0 0.533 0.238 0.533 0.533C46.664 74.964 46.424 75.203 46.13 75.203L46.13 75.203z" data-fill-palette-color="accent"></path><path fill="#4daafa" d="M42.931 75.203h-0.533c-0.294 0-0.533-0.239-0.533-0.533 0-0.295 0.239-0.533 0.533-0.533h0.533c0.294 0 0.533 0.238 0.533 0.533C43.464 74.964 43.225 75.203 42.931 75.203L42.931 75.203z" data-fill-palette-color="accent"></path><path fill="#4daafa" d="M20.53 75.203h-0.533c-0.294 0-0.533-0.239-0.533-0.533 0-0.295 0.239-0.533 0.533-0.533h0.533c0.296 0 0.535 0.238 0.535 0.533C21.065 74.964 20.826 75.203 20.53 75.203L20.53 75.203z" data-fill-palette-color="accent"></path><path fill="#4daafa" d="M31.293 94.342c-0.294 0-0.534-0.237-0.534-0.532 0-0.292 0.239-0.552 0.534-0.552 0.296 0 0.535 0.218 0.535 0.512v0.04C31.828 94.104 31.589 94.342 31.293 94.342L31.293 94.342z" data-fill-palette-color="accent"></path><path fill="#4daafa" d="M31.293 91.637c-0.294 0-0.534-0.238-0.534-0.533V90.57c0-0.294 0.239-0.533 0.534-0.533 0.296 0 0.535 0.239 0.535 0.533v0.533C31.828 91.398 31.589 91.637 31.293 91.637L31.293 91.637z" data-fill-palette-color="accent"></path><path fill="#4daafa" d="M31.293 69.236c-0.294 0-0.534-0.238-0.534-0.533V68.17c0-0.294 0.239-0.533 0.534-0.533 0.296 0 0.535 0.239 0.535 0.533v0.533C31.828 68.998 31.589 69.236 31.293 69.236L31.293 69.236z" data-fill-palette-color="accent"></path><path fill="#4daafa" d="M31.293 46.838c-0.294 0-0.534-0.237-0.534-0.533v-0.533c0-0.292 0.239-0.533 0.534-0.533 0.296 0 0.535 0.241 0.535 0.533v0.533C31.828 46.601 31.589 46.838 31.293 46.838L31.293 46.838z" data-fill-palette-color="accent"></path><path fill="#4daafa" d="M31.293 43.639c-0.294 0-0.534-0.24-0.534-0.533v-0.534c0-0.295 0.239-0.533 0.534-0.533 0.296 0 0.535 0.238 0.535 0.533v0.534C31.828 43.399 31.589 43.639 31.293 43.639L31.293 43.639z" data-fill-palette-color="accent"></path><path fill="#4daafa" d="M31.293 40.438c-0.294 0-0.534-0.239-0.534-0.533v-0.533c0-0.294 0.239-0.533 0.534-0.533 0.296 0 0.535 0.239 0.535 0.533v0.533C31.828 40.199 31.589 40.438 31.293 40.438L31.293 40.438z" data-fill-palette-color="accent"></path><path fill="#4daafa" d="M31.293 37.238c-0.294 0-0.534-0.239-0.534-0.534v-0.533c0-0.294 0.239-0.532 0.534-0.532 0.296 0 0.535 0.238 0.535 0.532v0.533C31.828 37 31.589 37.238 31.293 37.238L31.293 37.238z" data-fill-palette-color="accent"></path><path fill="#4daafa" d="M31.293 34.038c-0.294 0-0.534-0.237-0.534-0.533v-0.533c0-0.295 0.239-0.534 0.534-0.534 0.296 0 0.535 0.238 0.535 0.534v0.533C31.828 33.801 31.589 34.038 31.293 34.038L31.293 34.038z" data-fill-palette-color="accent"></path><path fill="#4daafa" d="M31.293 30.838c-0.294 0-0.534-0.24-0.534-0.533v-0.532c0-0.296 0.239-0.533 0.534-0.533 0.296 0 0.535 0.237 0.535 0.533v0.532C31.828 30.599 31.589 30.838 31.293 30.838L31.293 30.838z" data-fill-palette-color="accent"></path><path fill="#4daafa" d="M31.293 27.638c-0.294 0-0.534-0.237-0.534-0.533v-0.534c0-0.294 0.239-0.533 0.534-0.533 0.296 0 0.535 0.239 0.535 0.533v0.534C31.828 27.401 31.589 27.638 31.293 27.638L31.293 27.638z" data-fill-palette-color="accent"></path><path fill="#4daafa" d="M31.293 24.439c-0.294 0-0.534-0.239-0.534-0.534v-0.533c0-0.294 0.239-0.533 0.534-0.533 0.296 0 0.535 0.239 0.535 0.533v0.533C31.828 24.2 31.589 24.439 31.293 24.439L31.293 24.439z" data-fill-palette-color="accent"></path><path fill="#4daafa" d="M31.293 21.238c-0.294 0-0.534-0.239-0.534-0.534v-0.533c0-0.294 0.239-0.533 0.534-0.533 0.296 0 0.535 0.239 0.535 0.533v0.533C31.828 20.999 31.589 21.238 31.293 21.238L31.293 21.238z" data-fill-palette-color="accent"></path><path fill="#4daafa" d="M31.293 18.038c-0.294 0-0.534-0.237-0.534-0.532v-0.534c0-0.294 0.239-0.533 0.534-0.533 0.296 0 0.535 0.238 0.535 0.533v0.534C31.828 17.8 31.589 18.038 31.293 18.038L31.293 18.038z" data-fill-palette-color="accent"></path><path fill="#4daafa" d="M61.285 94.342c-0.295 0-0.533-0.237-0.533-0.532 0-0.292 0.238-0.552 0.533-0.552 0.296 0 0.534 0.218 0.534 0.512v0.04C61.819 94.104 61.581 94.342 61.285 94.342L61.285 94.342z" data-fill-palette-color="accent"></path><path fill="#4daafa" d="M61.285 91.637c-0.295 0-0.533-0.238-0.533-0.533V90.57c0-0.294 0.238-0.533 0.533-0.533 0.296 0 0.534 0.239 0.534 0.533v0.533C61.819 91.398 61.581 91.637 61.285 91.637L61.285 91.637z" data-fill-palette-color="accent"></path><path fill="#4daafa" d="M61.285 88.438c-0.295 0-0.533-0.239-0.533-0.533v-0.533c0-0.295 0.238-0.533 0.533-0.533 0.296 0 0.534 0.238 0.534 0.533v0.533C61.819 88.198 61.581 88.438 61.285 88.438L61.285 88.438z" data-fill-palette-color="accent"></path><path fill="#4daafa" d="M61.285 85.238c-0.295 0-0.533-0.237-0.533-0.534v-0.533c0-0.294 0.238-0.533 0.533-0.533 0.296 0 0.534 0.239 0.534 0.533v0.533C61.819 85.001 61.581 85.238 61.285 85.238L61.285 85.238z" data-fill-palette-color="accent"></path><path fill="#4daafa" d="M61.285 62.839c-0.295 0-0.533-0.24-0.533-0.533v-0.535c0-0.294 0.238-0.533 0.533-0.533 0.296 0 0.534 0.239 0.534 0.533v0.535C61.819 62.599 61.581 62.839 61.285 62.839L61.285 62.839z" data-fill-palette-color="accent"></path><path fill="#4daafa" d="M61.285 40.438c-0.295 0-0.533-0.239-0.533-0.533v-0.533c0-0.294 0.238-0.533 0.533-0.533 0.296 0 0.534 0.239 0.534 0.533v0.533C61.819 40.199 61.581 40.438 61.285 40.438L61.285 40.438z" data-fill-palette-color="accent"></path><path fill="#4daafa" d="M61.285 37.238c-0.295 0-0.533-0.239-0.533-0.534v-0.533c0-0.294 0.238-0.532 0.533-0.532 0.296 0 0.534 0.238 0.534 0.532v0.533C61.819 37 61.581 37.238 61.285 37.238L61.285 37.238z" data-fill-palette-color="accent"></path><path fill="#4daafa" d="M61.285 34.038c-0.295 0-0.533-0.237-0.533-0.533v-0.533c0-0.295 0.238-0.534 0.533-0.534 0.296 0 0.534 0.238 0.534 0.534v0.533C61.819 33.801 61.581 34.038 61.285 34.038L61.285 34.038z" data-fill-palette-color="accent"></path><path fill="#4daafa" d="M61.285 27.638c-0.295 0-0.533-0.237-0.533-0.533v-0.534c0-0.294 0.238-0.533 0.533-0.533 0.296 0 0.534 0.239 0.534 0.533v0.534C61.819 27.401 61.581 27.638 61.285 27.638L61.285 27.638z" data-fill-palette-color="accent"></path><path fill="#4daafa" d="M61.285 24.439c-0.295 0-0.533-0.239-0.533-0.534v-0.533c0-0.294 0.238-0.533 0.533-0.533 0.296 0 0.534 0.239 0.534 0.533v0.533C61.819 24.2 61.581 24.439 61.285 24.439L61.285 24.439z" data-fill-palette-color="accent"></path><path fill="#4daafa" d="M61.285 21.238c-0.295 0-0.533-0.239-0.533-0.534v-0.533c0-0.294 0.238-0.533 0.533-0.533 0.296 0 0.534 0.239 0.534 0.533v0.533C61.819 20.999 61.581 21.238 61.285 21.238L61.285 21.238z" data-fill-palette-color="accent"></path><path fill="#4daafa" d="M61.285 18.038c-0.295 0-0.533-0.237-0.533-0.532v-0.534c0-0.294 0.238-0.533 0.533-0.533 0.296 0 0.534 0.238 0.534 0.533v0.534C61.819 17.8 61.581 18.038 61.285 18.038L61.285 18.038z" data-fill-palette-color="accent"></path><path fill="#4daafa" d="M92.129 94.342c-0.294 0-0.533-0.237-0.533-0.532 0-0.292 0.239-0.552 0.533-0.552 0.296 0 0.535 0.218 0.535 0.512v0.04C92.664 94.104 92.425 94.342 92.129 94.342L92.129 94.342z" data-fill-palette-color="accent"></path><path fill="#4daafa" d="M92.129 91.637c-0.294 0-0.533-0.238-0.533-0.533V90.57c0-0.294 0.239-0.533 0.533-0.533 0.296 0 0.535 0.239 0.535 0.533v0.533C92.664 91.398 92.425 91.637 92.129 91.637L92.129 91.637z" data-fill-palette-color="accent"></path><path fill="#4daafa" d="M92.129 88.438c-0.294 0-0.533-0.239-0.533-0.533v-0.533c0-0.295 0.239-0.533 0.533-0.533 0.296 0 0.535 0.238 0.535 0.533v0.533C92.664 88.198 92.425 88.438 92.129 88.438L92.129 88.438z" data-fill-palette-color="accent"></path><path fill="#4daafa" d="M92.129 85.238c-0.294 0-0.533-0.237-0.533-0.534v-0.533c0-0.294 0.239-0.533 0.533-0.533 0.296 0 0.535 0.239 0.535 0.533v0.533C92.664 85.001 92.425 85.238 92.129 85.238L92.129 85.238z" data-fill-palette-color="accent"></path><path fill="#4daafa" d="M92.129 82.038c-0.294 0-0.533-0.238-0.533-0.533v-0.533c0-0.296 0.239-0.533 0.533-0.533 0.296 0 0.535 0.237 0.535 0.533v0.533C92.664 81.8 92.425 82.038 92.129 82.038L92.129 82.038z" data-fill-palette-color="accent"></path><path fill="#4daafa" d="M92.129 78.839c-0.294 0-0.533-0.239-0.533-0.533v-0.533c0-0.295 0.239-0.533 0.533-0.533 0.296 0 0.535 0.238 0.535 0.533v0.533C92.664 78.6 92.425 78.839 92.129 78.839L92.129 78.839z" data-fill-palette-color="accent"></path><path fill="#4daafa" d="M92.129 72.439c-0.294 0-0.533-0.238-0.533-0.535v-0.533c0-0.294 0.239-0.533 0.533-0.533 0.296 0 0.535 0.239 0.535 0.533v0.533C92.664 72.201 92.425 72.439 92.129 72.439L92.129 72.439z" data-fill-palette-color="accent"></path><path fill="#4daafa" d="M92.129 69.236c-0.294 0-0.533-0.238-0.533-0.533V68.17c0-0.294 0.239-0.533 0.533-0.533 0.296 0 0.535 0.239 0.535 0.533v0.533C92.664 68.998 92.425 69.236 92.129 69.236L92.129 69.236z" data-fill-palette-color="accent"></path><path fill="#4daafa" d="M92.129 66.037c-0.294 0-0.533-0.235-0.533-0.533v-0.533c0-0.295 0.239-0.533 0.533-0.533 0.296 0 0.535 0.238 0.535 0.533v0.533C92.664 65.802 92.425 66.037 92.129 66.037L92.129 66.037z" data-fill-palette-color="accent"></path><path fill="#4daafa" d="M92.129 43.639c-0.294 0-0.533-0.24-0.533-0.533v-0.534c0-0.295 0.239-0.533 0.533-0.533 0.296 0 0.535 0.238 0.535 0.533v0.534C92.664 43.399 92.425 43.639 92.129 43.639L92.129 43.639z" data-fill-palette-color="accent"></path><path fill="#4daafa" d="M92.129 21.238c-0.294 0-0.533-0.239-0.533-0.534v-0.533c0-0.294 0.239-0.533 0.533-0.533 0.296 0 0.535 0.239 0.535 0.533v0.533C92.664 20.999 92.425 21.238 92.129 21.238L92.129 21.238z" data-fill-palette-color="accent"></path><path fill="#4daafa" d="M92.129 18.038c-0.294 0-0.533-0.237-0.533-0.532v-0.534c0-0.294 0.239-0.533 0.533-0.533 0.296 0 0.535 0.238 0.535 0.533v0.534C92.664 17.8 92.425 18.038 92.129 18.038L92.129 18.038z" data-fill-palette-color="accent"></path><path fill="#4daafa" d="M92.073 23.743c-4.617 0-8.372 3.751-8.372 8.368 0 2.024 0.722 3.88 1.918 5.329-4.045 5.673-15.726 22.046-19.504 27.344-0.914-0.343-1.901-0.54-2.933-0.54-2.591 0-4.909 1.183-6.446 3.037l-17.71-8.117c0.076-0.457 0.126-0.921 0.126-1.402 0-4.617-3.755-8.368-8.37-8.368-4.616 0-8.371 3.751-8.371 8.368 0 4.616 3.755 8.37 8.371 8.37 2.59 0 4.91-1.185 6.448-3.039l17.708 8.118c-0.078 0.456-0.128 0.922-0.128 1.401 0 4.617 3.757 8.371 8.372 8.371s8.369-3.754 8.369-8.371c0-2.052-0.746-3.934-1.976-5.39 1.687-2.22 4.585-6.278 9.901-13.736l9.663-13.545c0.916 0.343 1.901 0.541 2.933 0.541 4.612 0 8.368-3.754 8.368-8.371S96.686 23.743 92.073 23.743zM30.783 61.812c-2.231 0-4.051-1.818-4.051-4.051s1.82-4.048 4.051-4.048c2.233 0 4.048 1.815 4.048 4.048S33.017 61.812 30.783 61.812zM63.183 76.661c-2.232 0-4.05-1.816-4.05-4.05 0-2.229 1.817-4.048 4.05-4.048 2.233 0 4.05 1.819 4.05 4.048C67.232 74.845 65.416 76.661 63.183 76.661zM92.073 36.16c-2.233 0-4.051-1.814-4.051-4.049 0-2.231 1.817-4.047 4.051-4.047 2.232 0 4.048 1.815 4.048 4.047C96.121 34.345 94.306 36.16 92.073 36.16z" data-fill-palette-color="accent"></path><path fill="#4daafa" d="M90.991 45.88c-3.646 0-6.745 2.349-7.89 5.609l-13.557-1.016c-0.647-3.975-4.095-7.021-8.252-7.021-4.614 0-8.369 3.754-8.369 8.369 0 1.326 0.317 2.575 0.868 3.691-1.586 1.381-4.055 3.579-7.859 6.993l-11.616 10.42c-1.324-0.877-2.909-1.389-4.614-1.389-4.614 0-8.368 3.75-8.368 8.365 0 4.616 3.753 8.37 8.368 8.37 4.616 0 8.371-3.754 8.371-8.37 0-1.342-0.326-2.607-0.89-3.732 4.818-4.297 15.202-13.55 19.49-17.372 1.326 0.881 2.914 1.396 4.619 1.396 3.576 0 6.626-2.257 7.822-5.419l13.657 1.022c0.728 3.88 4.133 6.825 8.219 6.825 4.618 0 8.371-3.752 8.371-8.37C99.362 49.638 95.609 45.88 90.991 45.88zM29.703 83.949c-2.233 0-4.048-1.815-4.048-4.048 0-2.231 1.814-4.048 4.048-4.048s4.051 1.816 4.051 4.048C33.754 82.134 31.937 83.949 29.703 83.949zM61.293 55.871c-1.57 0-2.92-0.907-3.59-2.216l-0.075-0.288-0.054 0.055c-0.211-0.493-0.332-1.034-0.332-1.601 0-2.232 1.817-4.05 4.051-4.05 2.23 0 4.049 1.818 4.049 4.05C65.342 54.055 63.523 55.871 61.293 55.871zM90.991 58.302c-2.231 0-4.048-1.816-4.048-4.05 0-2.232 1.816-4.05 4.048-4.05 2.233 0 4.05 1.818 4.05 4.05C95.041 56.485 93.225 58.302 90.991 58.302z" data-fill-palette-color="accent"></path><path fill="#4daafa" d="M104.834 103.277H10.167c-1.474 0-2.667-1.193-2.667-2.665V15.011c0-1.473 1.193-2.665 2.667-2.665 1.473 0 2.666 1.192 2.666 2.665v82.933h92.001c1.472 0 2.666 1.193 2.666 2.668C107.5 102.084 106.306 103.277 104.834 103.277L104.834 103.277z" data-fill-palette-color="accent"></path></svg></g></svg></g></svg></g></svg></g><g></g></svg></g></svg></g><g><path d="M177.999 41.559A79.626 79.626 0 0 1 217.521 41.559L215.361 41.559A77.465 77.465 0 0 0 180.159 41.559L177.999 41.559M177.999 205.641A79.626 79.626 0 0 0 217.521 205.641L215.361 205.641A77.465 77.465 0 0 1 180.159 205.641L177.999 205.641" fill="#4daafa" stroke="transparent" data-fill-palette-color="tertiary"></path></g></svg></g><defs></defs></svg><rect width="395.52" height="247.2" fill="none" stroke="none" visibility="hidden"></rect></g></svg></g></svg>